<svg xmlns="http://www.w3.org/2000/svg" xmlns:xlink="http://www.w3.org/1999/xlink" width="500" zoomAndPan="magnify" viewBox="0 0 375 127.500001" height="170" preserveAspectRatio="xMidYMid meet" version="1.0"><defs><g/><clipPath id="b697706105"><path d="M 0.730469 0 L 374.265625 0 L 374.265625 127.003906 L 0.730469 127.003906 Z M 0.730469 0 " clip-rule="nonzero"/></clipPath><clipPath id="0856aa67df"><path d="M 2.050781 13.769531 L 92.898438 13.769531 L 92.898438 113.234375 L 2.050781 113.234375 Z M 2.050781 13.769531 " clip-rule="nonzero"/></clipPath></defs><g clip-path="url(#b697706105)"><path fill="#ffffff" d="M 0.730469 0 L 374.265625 0 L 374.265625 127.003906 L 0.730469 127.003906 Z M 0.730469 0 " fill-opacity="1" fill-rule="nonzero"/><path fill="#faffff" d="M 0.730469 0 L 374.265625 0 L 374.265625 127.003906 L 0.730469 127.003906 Z M 0.730469 0 " fill-opacity="1" fill-rule="nonzero"/></g><g clip-path="url(#0856aa67df)"><path fill="#000000" d="M 10.359375 37.070312 C 19.242188 30.121094 27.457031 26.253906 38.421875 23.273438 C 47.03125 20.929688 47.835938 20.929688 56.445312 23.273438 C 67.410156 26.253906 75.625 30.121094 84.507812 37.070312 C 86.027344 40.429688 84.320312 51.851562 83.621094 55.578125 C 82.21875 63.050781 79.628906 70.394531 75.980469 77.152344 L 81.648438 82.820312 C 86.265625 74.832031 89.511719 66.019531 91.203125 57 C 93.117188 46.800781 94.078125 34.800781 89.683594 31.324219 C 79.992188 23.664062 71.023438 19.242188 58.472656 15.828125 C 48.375 13.082031 46.496094 13.082031 36.398438 15.828125 C 23.847656 19.242188 14.875 23.664062 5.183594 31.324219 C 0.792969 34.800781 1.753906 46.800781 3.667969 57 C 8.210938 81.242188 23.96875 103.988281 47.433594 113.226562 C 57.214844 109.375 65.65625 103.175781 72.507812 95.5 L 67.042969 90.035156 C 61.59375 96.226562 55.007812 101.355469 47.433594 104.839844 C 28.058594 95.921875 15.121094 76.234375 11.25 55.578125 C 10.550781 51.851562 8.839844 40.429688 10.359375 37.070312 Z M 10.359375 37.070312 " fill-opacity="1" fill-rule="evenodd"/></g><path fill="#0cc0df" d="M 47.433594 100.558594 L 47.433594 86.332031 C 53.449219 86.332031 59 84.351562 63.472656 81.011719 L 77.101562 94.636719 C 81.785156 99.324219 87.523438 94.148438 82.132812 88.757812 L 68.929688 75.554688 C 72.273438 71.082031 74.25 65.53125 74.25 59.515625 C 74.25 44.707031 62.246094 32.699219 47.433594 32.699219 L 47.433594 25.375 C 45.421875 25.375 43.40625 25.914062 39.433594 26.996094 C 29.390625 29.726562 21.851562 33.179688 13.769531 39.316406 C 13.113281 43.109375 14.421875 51.558594 15.042969 54.867188 C 18.574219 73.699219 30.097656 91.828125 47.433594 100.558594 Z M 47.433594 78.617188 C 36.886719 78.617188 28.332031 70.066406 28.332031 59.515625 C 28.332031 48.964844 36.886719 40.414062 47.433594 40.414062 C 57.984375 40.414062 66.535156 48.964844 66.535156 59.515625 C 66.535156 70.066406 57.984375 78.617188 47.433594 78.617188 Z M 47.433594 78.617188 " fill-opacity="1" fill-rule="evenodd"/><g fill="#0cc0df" fill-opacity="1"><g transform="translate(102.849781, 78.750133)"><g><path d="M 20.484375 -10.53125 L 20.484375 -17.046875 C 20.484375 -18.097656 19.882812 -18.625 18.6875 -18.625 L 11.8125 -18.625 C 8.28125 -18.625 5.785156 -19.394531 4.328125 -20.9375 C 2.867188 -22.488281 2.140625 -24.722656 2.140625 -27.640625 L 2.140625 -37.09375 C 2.140625 -43.007812 5.628906 -45.96875 12.609375 -45.96875 L 22.40625 -45.96875 C 29.382812 -45.96875 32.875 -43.007812 32.875 -37.09375 L 32.875 -31.578125 L 20.34375 -31.578125 L 20.34375 -35.453125 C 20.34375 -36.492188 19.742188 -37.015625 18.546875 -37.015625 L 16.46875 -37.015625 C 15.28125 -37.015625 14.6875 -36.492188 14.6875 -35.453125 L 14.6875 -28.640625 C 14.6875 -27.585938 15.28125 -27.0625 16.46875 -27.0625 L 23.203125 -27.0625 C 26.734375 -27.0625 29.25 -26.320312 30.75 -24.84375 C 32.257812 -23.363281 33.015625 -21.191406 33.015625 -18.328125 L 33.015625 -8.875 C 33.015625 -2.957031 29.53125 0 22.5625 0 L 12.8125 0 C 5.800781 0 2.296875 -2.957031 2.296875 -8.875 L 2.296875 -14.390625 L 14.828125 -14.390625 L 14.828125 -10.53125 C 14.828125 -9.476562 15.421875 -8.953125 16.609375 -8.953125 L 18.6875 -8.953125 C 19.882812 -8.953125 20.484375 -9.476562 20.484375 -10.53125 Z M 20.484375 -10.53125 "/></g></g></g><g fill="#0cc0df" fill-opacity="1"><g transform="translate(138.002365, 78.750133)"><g><path d="M 12.671875 -35.734375 L 21.40625 -35.734375 C 28.425781 -35.734375 31.9375 -32.773438 31.9375 -26.859375 L 31.9375 -14.6875 L 13.671875 -14.6875 L 13.671875 -9.953125 C 13.671875 -8.898438 14.269531 -8.375 15.46875 -8.375 L 18.625 -8.375 C 19.8125 -8.375 20.40625 -8.945312 20.40625 -10.09375 L 20.40625 -12.109375 L 31.9375 -12.109375 L 31.9375 -8.875 C 31.9375 -2.957031 28.425781 0 21.40625 0 L 12.671875 0 C 5.648438 0 2.140625 -2.957031 2.140625 -8.875 L 2.140625 -26.859375 C 2.140625 -32.773438 5.648438 -35.734375 12.671875 -35.734375 Z M 13.671875 -21.265625 L 20.40625 -21.265625 L 20.40625 -25.78125 C 20.40625 -26.832031 19.8125 -27.359375 18.625 -27.359375 L 15.46875 -27.359375 C 14.269531 -27.359375 13.671875 -26.832031 13.671875 -25.78125 Z M 13.671875 -21.265625 "/></g></g></g><g fill="#0cc0df" fill-opacity="1"><g transform="translate(171.72308, 78.750133)"><g><path d="M 19.484375 -35.734375 L 31.4375 -35.734375 L 31.4375 0 L 19.265625 0 L 19.265625 -3.859375 C 18.359375 -1.285156 16.257812 0 12.96875 0 L 11.671875 0 C 5.316406 0 2.140625 -2.957031 2.140625 -8.875 L 2.140625 -26.859375 C 2.140625 -32.773438 5.316406 -35.734375 11.671875 -35.734375 L 12.96875 -35.734375 C 16.632812 -35.734375 18.804688 -34.207031 19.484375 -31.15625 Z M 16.109375 -8.953125 L 17.328125 -8.953125 C 18.617188 -8.953125 19.265625 -9.664062 19.265625 -11.09375 L 19.265625 -24.640625 C 19.265625 -26.066406 18.617188 -26.78125 17.328125 -26.78125 L 16.109375 -26.78125 C 14.921875 -26.78125 14.328125 -26.253906 14.328125 -25.203125 L 14.328125 -10.53125 C 14.328125 -9.476562 14.921875 -8.953125 16.109375 -8.953125 Z M 16.109375 -8.953125 "/></g></g></g><g fill="#0cc0df" fill-opacity="1"><g transform="translate(206.01653, 78.750133)"><g><path d="M 22.5625 -36.09375 L 23.625 -36.09375 L 23.625 -25.5 L 19.546875 -25.5 C 16.535156 -25.5 15.03125 -23.875 15.03125 -20.625 L 15.03125 0 L 2.859375 0 L 2.859375 -35.734375 L 14.828125 -35.734375 L 14.828125 -30.21875 C 15.203125 -32.03125 16.054688 -33.460938 17.390625 -34.515625 C 18.734375 -35.566406 20.457031 -36.09375 22.5625 -36.09375 Z M 22.5625 -36.09375 "/></g></g></g><g fill="#0cc0df" fill-opacity="1"><g transform="translate(230.000476, 78.750133)"><g><path d="M 30.859375 -21.90625 L 19.125 -21.90625 L 19.125 -25.203125 C 19.125 -26.253906 18.523438 -26.78125 17.328125 -26.78125 L 16.109375 -26.78125 C 14.921875 -26.78125 14.328125 -26.253906 14.328125 -25.203125 L 14.328125 -10.53125 C 14.328125 -9.476562 14.921875 -8.953125 16.109375 -8.953125 L 17.328125 -8.953125 C 18.523438 -8.953125 19.125 -9.476562 19.125 -10.53125 L 19.125 -13.828125 L 30.859375 -13.828125 L 30.859375 -8.875 C 30.859375 -2.957031 27.351562 0 20.34375 0 L 12.671875 0 C 5.648438 0 2.140625 -2.957031 2.140625 -8.875 L 2.140625 -26.859375 C 2.140625 -32.773438 5.648438 -35.734375 12.671875 -35.734375 L 20.34375 -35.734375 C 27.351562 -35.734375 30.859375 -32.773438 30.859375 -26.859375 Z M 30.859375 -21.90625 "/></g></g></g><g fill="#0cc0df" fill-opacity="1"><g transform="translate(262.289301, 78.750133)"><g><path d="M 21.34375 -35.734375 L 22.625 -35.734375 C 28.976562 -35.734375 32.15625 -32.773438 32.15625 -26.859375 L 32.15625 0 L 19.984375 0 L 19.984375 -25.203125 C 19.984375 -26.253906 19.382812 -26.78125 18.1875 -26.78125 L 16.96875 -26.78125 C 15.675781 -26.78125 15.03125 -26.066406 15.03125 -24.640625 L 15.03125 0 L 2.859375 0 L 2.859375 -47.90625 L 15.03125 -47.90625 L 15.03125 -31.859375 C 15.945312 -34.441406 18.050781 -35.734375 21.34375 -35.734375 Z M 21.34375 -35.734375 "/></g></g></g><g fill="#0cc0df" fill-opacity="1"><g transform="translate(296.940728, 78.750133)"><g><path d="M 2.65625 -39.3125 L 2.65625 -47.90625 L 15.25 -47.90625 L 15.25 -39.3125 Z M 15.03125 0 L 2.859375 0 L 2.859375 -35.734375 L 15.03125 -35.734375 Z M 15.03125 0 "/></g></g></g><g fill="#0cc0df" fill-opacity="1"><g transform="translate(314.839198, 78.750133)"><g><path d="M 22.125 -39.3125 L 18.328125 -39.3125 C 17.140625 -39.3125 16.546875 -38.785156 16.546875 -37.734375 L 16.546875 -35.734375 L 22.125 -35.734375 L 22.125 -26.78125 L 16.546875 -26.78125 L 16.546875 0 L 4.375 0 L 4.375 -26.78125 L 0.71875 -26.78125 L 0.71875 -35.734375 L 4.375 -35.734375 L 4.375 -39.03125 C 4.375 -44.945312 7.878906 -47.90625 14.890625 -47.90625 L 22.125 -47.90625 Z M 22.125 -39.3125 "/></g></g></g><g fill="#0cc0df" fill-opacity="1"><g transform="translate(337.319675, 78.750133)"><g><path d="M 10.734375 9.234375 L 4.71875 9.234375 L 4.71875 0.421875 L 10.03125 0.421875 C 11.175781 0.421875 12.082031 0.234375 12.75 -0.140625 C 13.414062 -0.523438 13.988281 -1.429688 14.46875 -2.859375 L 9.8125 -2.859375 L 0 -35.734375 L 12.75 -35.734375 L 17.109375 -13.96875 L 20.984375 -35.734375 L 33.234375 -35.734375 L 24.28125 -0.71875 C 23.269531 2.570312 21.738281 5.050781 19.6875 6.71875 C 17.632812 8.394531 14.648438 9.234375 10.734375 9.234375 Z M 10.734375 9.234375 "/></g></g></g></svg>